<mxfile host="app.diagrams.net" modified="2022-08-12T06:30:37.124Z" agent="5.0 (Macintosh; Intel Mac OS X 10_15_7) AppleWebKit/537.36 (KHTML, like Gecko) Chrome/104.0.0.0 Safari/537.36" etag="Tagh0RHw-swVowUKBfch" version="20.2.2" type="github">
  <diagram id="gF-m3cmP_W2a1E_brQSE" name="Page-1">
    <mxGraphModel dx="1298" dy="733" grid="1" gridSize="10" guides="1" tooltips="1" connect="1" arrows="1" fold="1" page="1" pageScale="1" pageWidth="850" pageHeight="1100" math="0" shadow="0">
      <root>
        <mxCell id="0" />
        <mxCell id="1" parent="0" />
        <mxCell id="9-WVTcNZSC30Cf8NXcHo-21" value="NVIDIA" style="ellipse;whiteSpace=wrap;html=1;align=center;treeFolding=1;treeMoving=1;newEdgeStyle={&quot;edgeStyle&quot;:&quot;entityRelationEdgeStyle&quot;,&quot;startArrow&quot;:&quot;none&quot;,&quot;endArrow&quot;:&quot;none&quot;,&quot;segment&quot;:10,&quot;curved&quot;:1};" vertex="1" parent="1">
          <mxGeometry x="180" y="600" width="100" height="40" as="geometry" />
        </mxCell>
        <mxCell id="9-WVTcNZSC30Cf8NXcHo-57" style="edgeStyle=orthogonalEdgeStyle;curved=1;rounded=0;orthogonalLoop=1;jettySize=auto;html=1;exitX=1;exitY=0.5;exitDx=0;exitDy=0;entryX=0;entryY=0.5;entryDx=0;entryDy=0;endArrow=none;endFill=0;" edge="1" parent="1" source="9-WVTcNZSC30Cf8NXcHo-22" target="9-WVTcNZSC30Cf8NXcHo-42">
          <mxGeometry relative="1" as="geometry" />
        </mxCell>
        <mxCell id="9-WVTcNZSC30Cf8NXcHo-58" style="edgeStyle=orthogonalEdgeStyle;curved=1;rounded=0;orthogonalLoop=1;jettySize=auto;html=1;exitX=1;exitY=0.5;exitDx=0;exitDy=0;entryX=0;entryY=0.5;entryDx=0;entryDy=0;endArrow=none;endFill=0;" edge="1" parent="1" source="9-WVTcNZSC30Cf8NXcHo-22" target="9-WVTcNZSC30Cf8NXcHo-29">
          <mxGeometry relative="1" as="geometry" />
        </mxCell>
        <mxCell id="9-WVTcNZSC30Cf8NXcHo-60" style="edgeStyle=orthogonalEdgeStyle;curved=1;rounded=0;orthogonalLoop=1;jettySize=auto;html=1;exitX=1;exitY=0.5;exitDx=0;exitDy=0;entryX=0;entryY=0.5;entryDx=0;entryDy=0;endArrow=none;endFill=0;" edge="1" parent="1" source="9-WVTcNZSC30Cf8NXcHo-22" target="9-WVTcNZSC30Cf8NXcHo-30">
          <mxGeometry relative="1" as="geometry" />
        </mxCell>
        <mxCell id="9-WVTcNZSC30Cf8NXcHo-61" style="edgeStyle=orthogonalEdgeStyle;curved=1;rounded=0;orthogonalLoop=1;jettySize=auto;html=1;exitX=1;exitY=0.5;exitDx=0;exitDy=0;entryX=0;entryY=0.5;entryDx=0;entryDy=0;endArrow=none;endFill=0;" edge="1" parent="1" source="9-WVTcNZSC30Cf8NXcHo-22" target="9-WVTcNZSC30Cf8NXcHo-31">
          <mxGeometry relative="1" as="geometry" />
        </mxCell>
        <mxCell id="9-WVTcNZSC30Cf8NXcHo-22" value="GeForce" style="whiteSpace=wrap;html=1;rounded=1;arcSize=50;align=center;verticalAlign=middle;strokeWidth=1;autosize=1;spacing=4;treeFolding=1;treeMoving=1;newEdgeStyle={&quot;edgeStyle&quot;:&quot;entityRelationEdgeStyle&quot;,&quot;startArrow&quot;:&quot;none&quot;,&quot;endArrow&quot;:&quot;none&quot;,&quot;segment&quot;:10,&quot;curved&quot;:1};" vertex="1" parent="1">
          <mxGeometry x="321" y="490" width="90" height="30" as="geometry" />
        </mxCell>
        <mxCell id="9-WVTcNZSC30Cf8NXcHo-23" value="" style="edgeStyle=entityRelationEdgeStyle;startArrow=none;endArrow=none;segment=10;curved=1;rounded=0;exitX=1;exitY=0.5;exitDx=0;exitDy=0;" edge="1" target="9-WVTcNZSC30Cf8NXcHo-22" parent="1" source="9-WVTcNZSC30Cf8NXcHo-21">
          <mxGeometry relative="1" as="geometry">
            <mxPoint x="250" y="620" as="sourcePoint" />
          </mxGeometry>
        </mxCell>
        <mxCell id="9-WVTcNZSC30Cf8NXcHo-62" style="edgeStyle=orthogonalEdgeStyle;curved=1;rounded=0;orthogonalLoop=1;jettySize=auto;html=1;exitX=1;exitY=0.5;exitDx=0;exitDy=0;entryX=0;entryY=0.5;entryDx=0;entryDy=0;endArrow=none;endFill=0;" edge="1" parent="1" source="9-WVTcNZSC30Cf8NXcHo-24" target="9-WVTcNZSC30Cf8NXcHo-32">
          <mxGeometry relative="1" as="geometry" />
        </mxCell>
        <mxCell id="9-WVTcNZSC30Cf8NXcHo-63" style="edgeStyle=orthogonalEdgeStyle;curved=1;rounded=0;orthogonalLoop=1;jettySize=auto;html=1;exitX=1;exitY=0.5;exitDx=0;exitDy=0;entryX=0;entryY=0.5;entryDx=0;entryDy=0;endArrow=none;endFill=0;" edge="1" parent="1" source="9-WVTcNZSC30Cf8NXcHo-24" target="9-WVTcNZSC30Cf8NXcHo-34">
          <mxGeometry relative="1" as="geometry" />
        </mxCell>
        <mxCell id="9-WVTcNZSC30Cf8NXcHo-64" style="edgeStyle=orthogonalEdgeStyle;curved=1;rounded=0;orthogonalLoop=1;jettySize=auto;html=1;exitX=1;exitY=0.5;exitDx=0;exitDy=0;entryX=0;entryY=0.5;entryDx=0;entryDy=0;endArrow=none;endFill=0;" edge="1" parent="1" source="9-WVTcNZSC30Cf8NXcHo-24" target="9-WVTcNZSC30Cf8NXcHo-35">
          <mxGeometry relative="1" as="geometry" />
        </mxCell>
        <mxCell id="9-WVTcNZSC30Cf8NXcHo-65" style="edgeStyle=orthogonalEdgeStyle;curved=1;rounded=0;orthogonalLoop=1;jettySize=auto;html=1;exitX=1;exitY=0.5;exitDx=0;exitDy=0;entryX=0;entryY=0.5;entryDx=0;entryDy=0;endArrow=none;endFill=0;" edge="1" parent="1" source="9-WVTcNZSC30Cf8NXcHo-24" target="9-WVTcNZSC30Cf8NXcHo-36">
          <mxGeometry relative="1" as="geometry" />
        </mxCell>
        <mxCell id="9-WVTcNZSC30Cf8NXcHo-66" style="edgeStyle=orthogonalEdgeStyle;curved=1;rounded=0;orthogonalLoop=1;jettySize=auto;html=1;exitX=1;exitY=0.5;exitDx=0;exitDy=0;entryX=0;entryY=0.5;entryDx=0;entryDy=0;endArrow=none;endFill=0;" edge="1" parent="1" source="9-WVTcNZSC30Cf8NXcHo-24" target="9-WVTcNZSC30Cf8NXcHo-37">
          <mxGeometry relative="1" as="geometry" />
        </mxCell>
        <mxCell id="9-WVTcNZSC30Cf8NXcHo-24" value="Tesla" style="whiteSpace=wrap;html=1;rounded=1;arcSize=50;align=center;verticalAlign=middle;strokeWidth=1;autosize=1;spacing=4;treeFolding=1;treeMoving=1;newEdgeStyle={&quot;edgeStyle&quot;:&quot;entityRelationEdgeStyle&quot;,&quot;startArrow&quot;:&quot;none&quot;,&quot;endArrow&quot;:&quot;none&quot;,&quot;segment&quot;:10,&quot;curved&quot;:1};" vertex="1" parent="1">
          <mxGeometry x="321" y="720" width="89" height="30" as="geometry" />
        </mxCell>
        <mxCell id="9-WVTcNZSC30Cf8NXcHo-26" value="" style="edgeStyle=entityRelationEdgeStyle;startArrow=none;endArrow=none;segment=10;curved=1;rounded=0;exitX=1;exitY=0.5;exitDx=0;exitDy=0;entryX=0;entryY=0.5;entryDx=0;entryDy=0;" edge="1" parent="1" source="9-WVTcNZSC30Cf8NXcHo-21" target="9-WVTcNZSC30Cf8NXcHo-24">
          <mxGeometry relative="1" as="geometry">
            <mxPoint x="290" y="630" as="sourcePoint" />
            <mxPoint x="331" y="597" as="targetPoint" />
          </mxGeometry>
        </mxCell>
        <mxCell id="9-WVTcNZSC30Cf8NXcHo-29" value="Geforce 16 系列" style="whiteSpace=wrap;html=1;rounded=1;arcSize=50;align=center;verticalAlign=middle;strokeWidth=1;autosize=1;spacing=4;treeFolding=1;treeMoving=1;newEdgeStyle={&quot;edgeStyle&quot;:&quot;entityRelationEdgeStyle&quot;,&quot;startArrow&quot;:&quot;none&quot;,&quot;endArrow&quot;:&quot;none&quot;,&quot;segment&quot;:10,&quot;curved&quot;:1};" vertex="1" parent="1">
          <mxGeometry x="471" y="468" width="130" height="30" as="geometry" />
        </mxCell>
        <mxCell id="9-WVTcNZSC30Cf8NXcHo-30" value="Geforce 20 系列" style="whiteSpace=wrap;html=1;rounded=1;arcSize=50;align=center;verticalAlign=middle;strokeWidth=1;autosize=1;spacing=4;treeFolding=1;treeMoving=1;newEdgeStyle={&quot;edgeStyle&quot;:&quot;entityRelationEdgeStyle&quot;,&quot;startArrow&quot;:&quot;none&quot;,&quot;endArrow&quot;:&quot;none&quot;,&quot;segment&quot;:10,&quot;curved&quot;:1};" vertex="1" parent="1">
          <mxGeometry x="471" y="508" width="130" height="30" as="geometry" />
        </mxCell>
        <mxCell id="9-WVTcNZSC30Cf8NXcHo-31" value="Geforce 30 系列" style="whiteSpace=wrap;html=1;rounded=1;arcSize=50;align=center;verticalAlign=middle;strokeWidth=1;autosize=1;spacing=4;treeFolding=1;treeMoving=1;newEdgeStyle={&quot;edgeStyle&quot;:&quot;entityRelationEdgeStyle&quot;,&quot;startArrow&quot;:&quot;none&quot;,&quot;endArrow&quot;:&quot;none&quot;,&quot;segment&quot;:10,&quot;curved&quot;:1};" vertex="1" parent="1">
          <mxGeometry x="471" y="548" width="130" height="30" as="geometry" />
        </mxCell>
        <mxCell id="9-WVTcNZSC30Cf8NXcHo-41" value="" style="edgeStyle=orthogonalEdgeStyle;curved=1;rounded=0;orthogonalLoop=1;jettySize=auto;html=1;endArrow=none;endFill=0;" edge="1" parent="1" source="9-WVTcNZSC30Cf8NXcHo-32" target="9-WVTcNZSC30Cf8NXcHo-40" visible="0">
          <mxGeometry relative="1" as="geometry" />
        </mxCell>
        <mxCell id="9-WVTcNZSC30Cf8NXcHo-32" value="A 系列" style="whiteSpace=wrap;html=1;rounded=1;arcSize=50;align=center;verticalAlign=middle;strokeWidth=1;autosize=1;spacing=4;treeFolding=1;treeMoving=1;newEdgeStyle={&quot;edgeStyle&quot;:&quot;entityRelationEdgeStyle&quot;,&quot;startArrow&quot;:&quot;none&quot;,&quot;endArrow&quot;:&quot;none&quot;,&quot;segment&quot;:10,&quot;curved&quot;:1};" vertex="1" collapsed="1" parent="1">
          <mxGeometry x="496" y="638" width="80" height="30" as="geometry" />
        </mxCell>
        <mxCell id="9-WVTcNZSC30Cf8NXcHo-34" value="T 系列" style="whiteSpace=wrap;html=1;rounded=1;arcSize=50;align=center;verticalAlign=middle;strokeWidth=1;autosize=1;spacing=4;treeFolding=1;treeMoving=1;newEdgeStyle={&quot;edgeStyle&quot;:&quot;entityRelationEdgeStyle&quot;,&quot;startArrow&quot;:&quot;none&quot;,&quot;endArrow&quot;:&quot;none&quot;,&quot;segment&quot;:10,&quot;curved&quot;:1};" vertex="1" parent="1">
          <mxGeometry x="496" y="680" width="80" height="30" as="geometry" />
        </mxCell>
        <mxCell id="9-WVTcNZSC30Cf8NXcHo-35" value="V 系列" style="whiteSpace=wrap;html=1;rounded=1;arcSize=50;align=center;verticalAlign=middle;strokeWidth=1;autosize=1;spacing=4;treeFolding=1;treeMoving=1;newEdgeStyle={&quot;edgeStyle&quot;:&quot;entityRelationEdgeStyle&quot;,&quot;startArrow&quot;:&quot;none&quot;,&quot;endArrow&quot;:&quot;none&quot;,&quot;segment&quot;:10,&quot;curved&quot;:1};" vertex="1" parent="1">
          <mxGeometry x="496" y="720" width="80" height="30" as="geometry" />
        </mxCell>
        <mxCell id="9-WVTcNZSC30Cf8NXcHo-36" value="P 系列" style="whiteSpace=wrap;html=1;rounded=1;arcSize=50;align=center;verticalAlign=middle;strokeWidth=1;autosize=1;spacing=4;treeFolding=1;treeMoving=1;newEdgeStyle={&quot;edgeStyle&quot;:&quot;entityRelationEdgeStyle&quot;,&quot;startArrow&quot;:&quot;none&quot;,&quot;endArrow&quot;:&quot;none&quot;,&quot;segment&quot;:10,&quot;curved&quot;:1};" vertex="1" parent="1">
          <mxGeometry x="496" y="760" width="80" height="30" as="geometry" />
        </mxCell>
        <mxCell id="9-WVTcNZSC30Cf8NXcHo-37" value="K 系列" style="whiteSpace=wrap;html=1;rounded=1;arcSize=50;align=center;verticalAlign=middle;strokeWidth=1;autosize=1;spacing=4;treeFolding=1;treeMoving=1;newEdgeStyle={&quot;edgeStyle&quot;:&quot;entityRelationEdgeStyle&quot;,&quot;startArrow&quot;:&quot;none&quot;,&quot;endArrow&quot;:&quot;none&quot;,&quot;segment&quot;:10,&quot;curved&quot;:1};" vertex="1" parent="1">
          <mxGeometry x="496" y="798" width="80" height="30" as="geometry" />
        </mxCell>
        <mxCell id="9-WVTcNZSC30Cf8NXcHo-40" value="A100" style="whiteSpace=wrap;html=1;rounded=1;arcSize=50;align=center;verticalAlign=middle;strokeWidth=1;autosize=1;spacing=4;treeFolding=1;treeMoving=1;newEdgeStyle={&quot;edgeStyle&quot;:&quot;entityRelationEdgeStyle&quot;,&quot;startArrow&quot;:&quot;none&quot;,&quot;endArrow&quot;:&quot;none&quot;,&quot;segment&quot;:10,&quot;curved&quot;:1};" vertex="1" visible="0" parent="1">
          <mxGeometry x="642" y="639" width="70" height="30" as="geometry" />
        </mxCell>
        <mxCell id="9-WVTcNZSC30Cf8NXcHo-42" value="Geforce 10 系列" style="whiteSpace=wrap;html=1;rounded=1;arcSize=50;align=center;verticalAlign=middle;strokeWidth=1;autosize=1;spacing=4;treeFolding=1;treeMoving=1;newEdgeStyle={&quot;edgeStyle&quot;:&quot;entityRelationEdgeStyle&quot;,&quot;startArrow&quot;:&quot;none&quot;,&quot;endArrow&quot;:&quot;none&quot;,&quot;segment&quot;:10,&quot;curved&quot;:1};" vertex="1" parent="1">
          <mxGeometry x="470" y="428" width="130" height="30" as="geometry" />
        </mxCell>
      </root>
    </mxGraphModel>
  </diagram>
</mxfile>
